# xmcd
#
# Track frame offsets:
#	150
#	11463
#	24457
#	30465
#	34890
#	43421
#	48563
#	62921
#	65582
#	71284
#	76462
#	84396
#	98265
#	106294
#	111582
#	118106
#	120642
#	132684
#	146920
#	159426
#	172233
#	179360
#	184298
#	186969
#	190283
#	198119
#	211138
#	222886
#	231667
#	237063
#	244006
#	250205
#	256266
#	266155
#	276087
#	283969
#	290390
#	294515
#	300358
#	305800
#	309261
#	313237
#
# Disc length: 4253 seconds
#
# Revision: 3
# Processed by: cddbd v1.5.2PL0 Copyright (c) Steve Scherf et al.
# Submitted via: EZCDAudioConverter 7.1.6.1
#
DISCID=83109b2a
DTITLE=Γιώργος Δασκουλίδης and  Σπύρος Σπυράκος - Live 98 Μεγάλες Επιτυχίες
DYEAR=2009
DGENRE=country
TTITLE0=Αχ Και Να 'ξερες 
TTITLE1=Ο Έρωτας Με Έρωτα Περνάει
TTITLE2=Τι Να Φταίει
TTITLE3=Η Βαλίτσα
TTITLE4=Ένα Όμορφο Αμάξι Με Δυο Άλογα
TTITLE5=Επιπόλαιος
TTITLE6=Όνειρο Απατηλό
TTITLE7=Άνθρωποι Είμαστε
TTITLE8=Παραμυθάκι Μου
TTITLE9=Το Φεγγάρι Πάνωθε Μου
TTITLE10=Να 'μουνα Θεός
TTITLE11=Λυπήσου Με
TTITLE12=Και Μετά
TTITLE13=Πρώτο Πακέτο
TTITLE14=Ο Αλήτης Σου
TTITLE15=Ωχ Αμάν Αμάν
TTITLE16=Θα Κλείσω Τα Μάτια
TTITLE17=Ουρανέ
TTITLE18=Πρέπει
TTITLE19=Φταίς
TTITLE20=Δε Θέλω Πια Να Ξαναρθείς
TTITLE21=Αφού Το Θες
TTITLE22=Εσύ Είσαι Η Αιτία Που Υποφέρω
TTITLE23=Σβήσε Τη Φλόγα
TTITLE24=Περασμένες Μου Αγάπες
TTITLE25=Όλα Δικά Σου Μάτια Μου
TTITLE26=Δεν Ξέρω Πόσο Σ'αγαπώ
TTITLE27=Πρώτη Φορά
TTITLE28=Μια Καρδιά Για Σένανε
TTITLE29=Κάποια Κάπου Κάποτε
TTITLE30=Ντρέπομαι Που Ακόμα Σε Ζητάω
TTITLE31=Δεν Συμμαζεύομαι
TTITLE32=Τι Σου Βρίσκω
TTITLE33=Στάσου
TTITLE34=Όλα Μου Τα Πήρες
TTITLE35=Ποιά Νύχτα Σ' Έκλεψε
TTITLE36=Σου Το 'πα Μια Και Δυο Και Τρεις
TTITLE37=Στο Λευκό Τον Πύργο
TTITLE38=Κάτσε Καλά
TTITLE39=Οι Θαλασσινοί (Πάρε Ναυτάκι Συριανό)
TTITLE40=Αλάνια
TTITLE41=Απόψε Στις Ακρογιαλιές
EXTD=
EXTT0=
EXTT1=
EXTT2=
EXTT3=
EXTT4=
EXTT5=
EXTT6=
EXTT7=
EXTT8=
EXTT9=
EXTT10=
EXTT11=
EXTT12=
EXTT13=
EXTT14=
EXTT15=
EXTT16=
EXTT17=
EXTT18=
EXTT19=
EXTT20=
EXTT21=
EXTT22=
EXTT23=
EXTT24=
EXTT25=
EXTT26=
EXTT27=
EXTT28=
EXTT29=
EXTT30=
EXTT31=
EXTT32=
EXTT33=
EXTT34=
EXTT35=
EXTT36=
EXTT37=
EXTT38=
EXTT39=
EXTT40=
EXTT41=
PLAYORDER=
